<mxfile host="app.diagrams.net" modified="2024-05-21T16:08:05.551Z" agent="Mozilla/5.0 (Windows NT 10.0; Win64; x64) AppleWebKit/537.36 (KHTML, like Gecko) Chrome/125.0.0.0 Safari/537.36" etag="7pXUzi0MQ1svYsVWLtXI" version="24.4.4" type="device">
  <diagram name="Page-1" id="9X-x2FgpAqNa3Kq0Gch3">
    <mxGraphModel dx="830" dy="477" grid="1" gridSize="10" guides="1" tooltips="1" connect="1" arrows="1" fold="1" page="1" pageScale="1" pageWidth="850" pageHeight="1100" math="0" shadow="0">
      <root>
        <mxCell id="0" />
        <mxCell id="1" parent="0" />
        <mxCell id="eA-UN-ZVFF0yVx1-LnNT-53" value="&lt;b&gt;RRT Div&lt;/b&gt;" style="ellipse;whiteSpace=wrap;html=1;aspect=fixed;fontSize=19;fillColor=#006DB5;strokeColor=#82b366;gradientColor=#14AD18;gradientDirection=north;" vertex="1" parent="1">
          <mxGeometry x="640" y="520" width="80" height="80" as="geometry" />
        </mxCell>
      </root>
    </mxGraphModel>
  </diagram>
</mxfile>
